<svg width="62" height="60" fill="none" xmlns="http://www.w3.org/2000/svg"><g clip-path="url(#a)" fill="#721988"><path d="M31.248 14.326c-8.68 0-15.872 6.98-15.872 15.674 0 8.694 7.068 15.673 15.872 15.673S47.12 38.571 47.12 30c0-8.572-7.192-15.674-15.872-15.674Zm0 25.715C25.668 40.04 21.08 35.51 21.08 30c0-5.51 4.588-10.041 10.168-10.041 5.58 0 10.168 4.53 10.168 10.04 0 5.511-4.588 10.042-10.168 10.042ZM47.74 17.51c1.986 0 3.596-1.59 3.596-3.55 0-1.962-1.61-3.552-3.596-3.552s-3.596 1.59-3.596 3.551 1.61 3.551 3.596 3.551Z"/><path d="M57.04 4.775c-3.224-3.306-7.812-5.02-13.02-5.02H18.476C7.688-.245.496 6.857.496 17.51v25.102c0 5.265 1.736 9.796 5.208 13.102 3.348 3.184 7.812 4.776 12.896 4.776h25.296c5.332 0 9.796-1.715 13.02-4.776C60.264 52.53 62 48 62 42.734V17.51c0-5.143-1.736-9.551-4.96-12.735Zm-.496 37.96c0 3.795-1.364 6.857-3.596 8.938-2.232 2.082-5.332 3.184-9.052 3.184H18.6c-3.72 0-6.82-1.102-9.052-3.184C7.316 49.47 6.2 46.408 6.2 42.612V17.51c0-3.674 1.116-6.735 3.348-8.939C11.656 6.49 14.88 5.388 18.6 5.388h25.544c3.72 0 6.82 1.102 9.052 3.306 2.108 2.204 3.348 5.265 3.348 8.816v25.224Z"/></g><defs><clipPath id="a"><path fill="#fff" d="M0 0h62v60H0z"/></clipPath></defs></svg>