<svg width="60" height="60" fill="none" xmlns="http://www.w3.org/2000/svg"><path fill-rule="evenodd" clip-rule="evenodd" d="M29.885 60h.027H29.885Zm.212 0h-.01.028-.018Zm-.303 0h.029-.029Zm.4 0h-.017.03-.013Zm-.489-.001h.02-.02Zm.586 0h-.016.02-.004Zm.096-.002h-.006.026-.02Zm-.794 0h.026H29.593Zm.891 0h-.016l.033-.001h-.017Zm-.985-.001h.033-.033Zm1.082-.002h-.021.03-.01Zm-1.17 0h.03-.03Zm-.11-.002h.026-.026Zm1.376 0h-.004.026-.022Zm-1.472-.002h.036H29.205Zm1.569 0h-.015.036-.021Zm.096-.002h-.023.037-.014Zm-1.754 0h.037-.037Zm-.084-.003h.026-.025l-.022-.001h.02Zm1.935 0h-.025.026l.021-.001h-.022Zm.096-.004-.013.001.04-.002-.027.002Zm-2.153 0 .04.001h-.013l-.027-.002Zm-.088-.004.043.002-.024-.001h-.019Zm2.337.001h-.024.043-.019Zm-2.423-.004.041.002-.032-.002h-.009Zm2.519 0-.032.002.041-.002h-.009Zm-2.64-.005.045.002h-.011l-.034-.002Zm2.736.001h-.01l.044-.002-.034.002Zm-2.822-.005.046.002-.022-.001-.024-.002Zm2.918 0-.022.002.046-.002h-.024Zm-3.004-.005.047.002-.033-.001h-.014Zm3.1.001-.033.002.047-.003-.014.001Zm.096-.005-.043.002.038-.002.044-.002-.04.002Zm-3.273 0 .038.002-.043-.002-.04-.002.045.002Zm3.368-.006-.019.002.048-.003-.029.002Zm-3.497-.001.048.003-.02-.002-.028-.001Zm-.085-.005.048.003-.03-.002-.018-.001Zm3.678.001-.03.002.048-.003-.018.001Zm-3.758-.006.042.002-.04-.002-.04-.002.038.002Zm3.854 0-.04.002.042-.002.038-.002-.04.002Zm.095-.006h-.014l.045-.002-.031.002Zm-4.073-.002.045.003-.014-.001-.031-.002Zm-.084-.006.044.003-.024-.002-.02-.001Zm4.252.001-.024.002.044-.003-.02.001Zm-4.337-.007.041.003-.032-.002-.009-.001Zm4.433 0-.032.003.04-.003h-.008Zm-4.546-.009.036.003h-.009l-.027-.003Zm4.64.003h-.008l.036-.003-.027.003Zm.096-.008-.017.001.036-.003-.02.002Zm-4.823-.002.036.003h-.017l-.02-.003Zm-.085-.006.03.002-.021-.002h-.01Zm5.003 0-.022.002.031-.002h-.009ZM27.4 59.89h.01-.01Zm5.192 0h-.002.01-.008Zm.095-.008h-.009l.022-.001-.013.001ZM27.3 59.88l.022.002h-.009l-.013-.002Zm-.088-.008.016.001h-.01l-.006-.001Zm5.57 0-.01.001.016-.001h-.006Zm-7.47-.237C10.979 57.382 0 44.963 0 30 0 13.443 13.443 0 30 0c16.557 0 30 13.443 30 30 0 14.963-10.978 27.382-25.313 29.635V38.672h6.99L43.008 30h-8.32v-5.628c0-2.372 1.163-4.684 4.89-4.684h3.782v-7.383s-3.433-.586-6.715-.586c-6.853 0-11.331 4.153-11.331 11.672V30h-7.618v8.672h7.617v20.963Z" fill="#721988"/></svg>