<svg width="62" height="60" viewBox="0 0 62 60" fill="none" xmlns="http://www.w3.org/2000/svg">
<g clip-path="url(#clip0_2_43)">
<path d="M31.2479 14.3263C22.5679 14.3263 15.3759 21.3059 15.3759 29.9998C15.3759 38.6936 22.4439 45.6732 31.2479 45.6732C40.0519 45.6732 47.1199 38.5712 47.1199 29.9998C47.1199 21.4283 39.9279 14.3263 31.2479 14.3263ZM31.2479 40.0406C25.6679 40.0406 21.0799 35.51 21.0799 29.9998C21.0799 24.4896 25.6679 19.9589 31.2479 19.9589C36.8279 19.9589 41.4159 24.4896 41.4159 29.9998C41.4159 35.51 36.8279 40.0406 31.2479 40.0406Z" fill="#721988"/>
<path d="M47.7405 17.5102C49.7265 17.5102 51.3365 15.9204 51.3365 13.9592C51.3365 11.998 49.7265 10.4082 47.7405 10.4082C45.7545 10.4082 44.1445 11.998 44.1445 13.9592C44.1445 15.9204 45.7545 17.5102 47.7405 17.5102Z" fill="#721988"/>
<path d="M57.04 4.77529C53.816 1.46917 49.228 -0.245117 44.02 -0.245117H18.476C7.68803 -0.245117 0.496033 6.85692 0.496033 17.51V42.612C0.496033 47.8773 2.23203 52.4079 5.70403 55.7141C9.05203 58.8977 13.516 60.4896 18.6 60.4896H43.896C49.228 60.4896 53.692 58.7753 56.916 55.7141C60.264 52.5304 62 47.9998 62 42.7345V17.51C62 12.3671 60.264 7.95896 57.04 4.77529ZM56.544 42.7345C56.544 46.5304 55.18 49.5916 52.948 51.6733C50.716 53.7549 47.616 54.8569 43.896 54.8569H18.6C14.88 54.8569 11.78 53.7549 9.54803 51.6733C7.31603 49.4692 6.20003 46.4079 6.20003 42.612V17.51C6.20003 13.8365 7.31603 10.7753 9.54803 8.57121C11.656 6.48958 14.88 5.38754 18.6 5.38754H44.144C47.864 5.38754 50.964 6.48958 53.196 8.69366C55.304 10.8977 56.544 13.959 56.544 17.51V42.7345Z" fill="#721988"/>
</g>
<defs>
<clipPath id="clip0_2_43">
<rect width="62" height="60" fill="white"/>
</clipPath>
</defs>
</svg>
