<svg width="60" height="60" viewBox="0 0 60 60" fill="none" xmlns="http://www.w3.org/2000/svg">
<path fill-rule="evenodd" clip-rule="evenodd" d="M29.8854 59.9998L29.9122 59.9999H29.903L29.8854 59.9998ZM30.097 59.9999H30.0878L30.1146 59.9998L30.097 59.9999ZM29.7938 59.9993L29.8227 59.9994H29.8061L29.7938 59.9993ZM30.1939 59.9994H30.1773L30.2063 59.9993L30.1939 59.9994ZM29.7054 59.9986L29.7247 59.9987L29.7093 59.9986H29.7054ZM30.2907 59.9986L30.2753 59.9987L30.2946 59.9986H30.2907ZM30.3875 59.9975L30.3807 59.9977L30.4069 59.9973L30.3875 59.9975ZM29.5931 59.9973L29.6193 59.9977L29.6125 59.9975L29.5931 59.9973ZM30.4842 59.9961L30.4684 59.9964L30.5006 59.9959L30.4842 59.9961ZM29.4994 59.9959L29.5316 59.9964L29.5158 59.9961L29.4994 59.9959ZM30.5808 59.9945L30.5595 59.9948L30.5892 59.9943L30.5808 59.9945ZM29.4108 59.9943L29.4405 59.9948L29.4192 59.9945L29.4108 59.9943ZM29.301 59.992L29.3273 59.9926L29.3227 59.9925L29.301 59.992ZM30.6773 59.9925L30.6727 59.9926L30.699 59.992L30.6773 59.9925ZM29.2046 59.9896L29.2409 59.9905L29.2262 59.9902L29.2046 59.9896ZM30.7738 59.9902L30.7591 59.9905L30.7953 59.9896L30.7738 59.9902ZM30.8702 59.9876L30.8467 59.9883L30.8837 59.9872L30.8702 59.9876ZM29.1163 59.9872L29.1533 59.9883L29.1298 59.9876L29.1163 59.9872ZM29.0319 59.9846L29.0583 59.9855L29.0334 59.9846L29.0107 59.9839L29.0319 59.9846ZM30.9666 59.9846L30.9417 59.9855L30.9681 59.9846L30.9893 59.9839L30.9666 59.9846ZM31.0628 59.9815L31.0496 59.982L31.0901 59.9805L31.0628 59.9815ZM28.9099 59.9805L28.9504 59.982L28.9372 59.9815L28.9099 59.9805ZM28.8221 59.9773L28.8646 59.9788L28.841 59.978L28.8221 59.9773ZM31.159 59.978L31.1354 59.9788L31.1779 59.9773L31.159 59.978ZM28.736 59.9738L28.7775 59.9755L28.745 59.9742L28.736 59.9738ZM31.255 59.9742L31.2225 59.9755L31.264 59.9738L31.255 59.9742ZM28.6153 59.9685L28.6598 59.9705L28.6489 59.9701L28.6153 59.9685ZM31.3511 59.9701L31.3402 59.9705L31.3847 59.9685L31.3511 59.9701ZM28.5287 59.9645L28.5749 59.9666L28.5531 59.9657L28.5287 59.9645ZM31.4469 59.9657L31.4251 59.9666L31.4713 59.9645L31.4469 59.9657ZM28.4434 59.9602L28.4899 59.9625L28.4572 59.961L28.4434 59.9602ZM31.5428 59.961L31.5101 59.9625L31.5566 59.9602L31.5428 59.961ZM31.6386 59.9559L31.5962 59.9582L31.6338 59.9562L31.6781 59.9537L31.6386 59.9559ZM28.3662 59.9562L28.4038 59.9582L28.3614 59.9559L28.3219 59.9537L28.3662 59.9562ZM31.7343 59.9505L31.7155 59.9516L31.7631 59.9489L31.7343 59.9505ZM28.2369 59.9489L28.2845 59.9516L28.2657 59.9505L28.2369 59.9489ZM28.1523 59.9439L28.1998 59.9467L28.1701 59.945L28.1523 59.9439ZM31.8299 59.945L31.8002 59.9467L31.8477 59.9439L31.8299 59.945ZM28.0716 59.9388L28.1143 59.9415L28.0745 59.9391L28.0344 59.9365L28.0716 59.9388ZM31.9255 59.9391L31.8857 59.9415L31.9284 59.9388L31.9656 59.9365L31.9255 59.9391ZM32.0209 59.9329L32.0066 59.9338L32.052 59.9307L32.0209 59.9329ZM27.948 59.9307L27.9934 59.9338L27.9791 59.9329L27.948 59.9307ZM27.8636 59.9249L27.9081 59.928L27.8837 59.9264L27.8636 59.9249ZM32.1163 59.9264L32.0919 59.928L32.1364 59.9249L32.1163 59.9264ZM27.7793 59.9189L27.8202 59.9218L27.7884 59.9196L27.7793 59.9189ZM32.2116 59.9196L32.1798 59.9218L32.2207 59.9189L32.2116 59.9196ZM27.666 59.9104L27.7018 59.913L27.6932 59.9125L27.666 59.9104ZM32.3068 59.9125L32.2982 59.913L32.334 59.9104L32.3068 59.9125ZM32.4019 59.9051L32.3848 59.9064L32.4212 59.9034L32.4019 59.9051ZM27.5788 59.9034L27.6152 59.9064L27.5981 59.9051L27.5788 59.9034ZM27.4938 59.8965L27.5248 59.8991L27.503 59.8973L27.4938 59.8965ZM32.497 59.8973L32.4752 59.8991L32.5062 59.8965L32.497 59.8973ZM27.4003 59.8887L27.4096 59.8895L27.408 59.8894L27.4003 59.8887ZM32.592 59.8894L32.5904 59.8895L32.5997 59.8887L32.592 59.8894ZM32.6869 59.8811L32.6784 59.8818L32.6996 59.8799L32.6869 59.8811ZM27.3004 59.8799L27.3216 59.8818L27.3131 59.8811L27.3004 59.8799ZM27.2125 59.8719L27.2283 59.8734L27.2184 59.8725L27.2125 59.8719ZM32.7816 59.8725L32.7717 59.8734L32.7875 59.8719L32.7816 59.8725ZM25.3125 59.6352C10.9782 57.3821 0 44.963 0 30C0 13.4426 13.4426 0 30 0C46.5574 0 60 13.4426 60 30C60 44.963 49.0218 57.3821 34.6875 59.6352V38.6719H41.6777L43.0078 30H34.6875V24.3725C34.6875 22.0001 35.8498 19.6875 39.5764 19.6875H43.3594V12.3047C43.3594 12.3047 39.9263 11.7188 36.6439 11.7188C29.7913 11.7188 25.3125 15.8719 25.3125 23.3906V30H17.6953V38.6719H25.3125V59.6352Z" fill="#721988"/>
</svg>
